PathFileType	4	(X/Y/Z)	/Users/itak/Documents/Research/Walk-IL/dataset/trc/00288_00010.trc
DataRate	CameraRate	NumFrames	NumMarkers	Units	OrigDataRate	OrigDataStartFrame	OrigNumFrames
100.000000	100.000000	4	53	mm	100.000000	418	669
Frame#	Time	RPSI			LPSI			L3			STRN			T10			C7			CLAV			RBAK			LBAK			LSHO			LUPA			LAEL			LAOL			LWTS			LWPS			LFRA			LHPS			LHTS			RSHO			RUPA			RAEL			RAOL			RWTS			RWPS			RFRA			RIFD			RHPS			RBHD			LFHD			RFHD			LBHD			RHIP			RASI			LASI			LKNE			LTHI			LANK			LTIP			LTOE			LMT1			LMT5			LHEE			RKNE			RTHI			RANK			RTIP			RTOE			RMT1			RMT5			RHEE			LIFD			RHTS			LHIP			
		X1	Y1	Z1	X2	Y2	Z2	X3	Y3	Z3	X4	Y4	Z4	X5	Y5	Z5	X6	Y6	Z6	X7	Y7	Z7	X8	Y8	Z8	X9	Y9	Z9	X10	Y10	Z10	X11	Y11	Z11	X12	Y12	Z12	X13	Y13	Z13	X14	Y14	Z14	X15	Y15	Z15	X16	Y16	Z16	X17	Y17	Z17	X18	Y18	Z18	X19	Y19	Z19	X20	Y20	Z20	X21	Y21	Z21	X22	Y22	Z22	X23	Y23	Z23	X24	Y24	Z24	X25	Y25	Z25	X26	Y26	Z26	X27	Y27	Z27	X28	Y28	Z28	X29	Y29	Z29	X30	Y30	Z30	X31	Y31	Z31	X32	Y32	Z32	X33	Y33	Z33	X34	Y34	Z34	X35	Y35	Z35	X36	Y36	Z36	X37	Y37	Z37	X38	Y38	Z38	X39	Y39	Z39	X40	Y40	Z40	X41	Y41	Z41	X42	Y42	Z42	X43	Y43	Z43	X44	Y44	Z44	X45	Y45	Z45	X46	Y46	Z46	X47	Y47	Z47	X48	Y48	Z48	X49	Y49	Z49	X50	Y50	Z50	X51	Y51	Z51	X52	Y52	Z52	X53	Y53	Z53	

419	4.18	848.14794921875	971.40869140625	40.92014312744141	1019.462829589844	980.487060546875	72.85096740722656	925.8502197265625	1041.634399414062	73.52340698242188	906.4112548828125	1226.493896484375	314.3054504394531	927.8865356445312	1155.250244140625	49.79363632202148	954.3942260742188	1399.416748046875	90.34872436523438	924.4254150390625	1323.567138671875	248.2398681640625	874.1962280273438	1267.481079101562	31.31950378417969	1053.835571289062	1355.35107421875	89.72859191894531	1096.889892578125	1360.698974609375	184.805908203125	1172.490844726562	1249.052368164062	149.1446533203125	1203.364379882812	1053.54638671875	125.1183776855469	1136.010131835938	1035.246215820312	73.89048767089844	1203.435791015625	814.8816528320312	168.1651611328125	1256.107543945312	820.9049682617188	120.1647872924805	1228.5927734375	950.8958129882812	117.6267471313477	1266.5341796875	735.5888671875	103.5100173950195	1241.112182617188	718.8505859375	162.2205963134766	788.5003662109375	1391.703979492188	136.0391540527344	718.4332275390625	1338.380004882812	123.1391448974609	649.9562377929688	1074.57763671875	106.1741561889648	739.7452392578125	1063.466186523438	76.46305084228516	766.5000610351562	949.9541015625	290.9173889160156	691.4742431640625	912.25341796875	275.7819213867188	653.2902221679688	1022.845031738281	158.9945220947266	815.7180786132812	794.6881103515625	383.4750061035156	728.7688598632812	831.1934204101562	347.2488403320312	910.0819702148438	1550.165771484375	81.40891265869141	949.391357421875	1609.571533203125	282.9826049804688	863.8178100585938	1602.545288085938	243.7545928955078	1042.619995117188	1550.978149414062	142.7816925048828	732.8265380859375	909.3289184570312	119.435905456543	782.2113037109375	924.8413696289062	253.1518707275391	1028.742065429688	946.7391357421875	283.4530334472656	1076.875854492188	491.5089111328125	322.9609985351562	1100.149780273438	628.1688232421875	282.6634826660156	1117.039306640625	28.98306465148926	281.5726318359375	1107.273193359375	258.3443908691406	309.2470397949219	973.8026733398438	42.03314208984375	440.1515502929688	966.6410522460938	31.3810920715332	360.6392211914062	1073.8994140625	30.34492492675781	396.6766967773438	1082.3505859375	29.65844345092773	214.6953125	784.1394653320312	443.6489562988281	142.1055145263672	742.5458984375	696.8937377929688	173.4089050292969	839.6875	166.7359161376953	-209.0115051269531	799.7960205078125	343.6302795410156	74.72750091552734	954.7562255859375	29.56598663330078	-140.9170989990234	968.7858276367188	84.54529571533203	-171.7535400390625	855.0628662109375	63.32698440551758	-181.0663604736328	870.194580078125	223.9185485839844	-232.9077911376953	1233.10009765625	637.3096313476562	124.3446731567383	786.5355224609375	863.6447143554688	374.1783447265625	1105.33935546875	944.22705078125	159.9487152099609	
420	4.19	851.759521484375	971.8375244140625	46.87539672851562	1022.5546875	981.6737670898438	81.76884460449219	928.9501342773438	1043.424438476562	81.28931427001953	904.6162109375	1226.859741210938	323.1379089355469	931.1513671875	1157.768676757812	58.86029052734375	956.8106079101562	1401.674438476562	101.3349533081055	923.8202514648438	1324.4228515625	258.1204528808594	877.3814697265625	1270.018676757812	40.14492416381836	1056.367431640625	1357.620849609375	102.4537353515625	1097.459228515625	1362.248168945312	198.4621734619141	1174.458740234375	1250.9619140625	164.8217926025391	1207.251708984375	1055.40234375	142.3482513427734	1141.464111328125	1036.716918945312	89.22186279296875	1207.8056640625	817.6441040039062	188.7033843994141	1261.165893554688	823.0234375	141.2951354980469	1232.9619140625	952.705322265625	136.4139862060547	1272.47900390625	737.4610595703125	126.8907241821289	1246.44287109375	721.9517822265625	185.6450653076172	790.1441040039062	1393.536254882812	144.6014556884766	720.0557861328125	1340.361938476562	130.7870330810547	651.3595581054688	1076.6533203125	113.1728057861328	741.0778198242188	1065.315307617188	83.35002136230469	761.13037109375	941.7539672851562	295.0014343261719	684.8267822265625	907.6084594726562	277.2308349609375	652.87939453125	1023.636291503906	164.3630065917969	801.78759765625	780.7076416015625	382.4891967773438	717.1467895507812	822.4956665039062	346.2578430175781	912.84619140625	1551.216186523438	90.925048828125	950.6790771484375	1611.6240234375	292.4851989746094	865.41748046875	1604.833984375	252.5590362548828	1044.850952148438	1551.709838867188	153.4047393798828	735.4144287109375	909.8575439453125	123.6300201416016	781.8319702148438	925.749755859375	257.9404602050781	1027.925659179688	947.6256103515625	292.7547302246094	1077.158935546875	491.0740356445312	327.316162109375	1100.407104492188	628.3101196289062	289.0316772460938	1116.835571289062	29.15056991577148	281.5881958007812	1107.319458007812	258.0425109863281	311.3484191894531	973.4141235351562	40.77371597290039	440.3096008300781	966.4057006835938	30.85963821411133	360.7220153808594	1073.714477539062	30.12995338439941	396.8667602539062	1082.220458984375	29.82325172424316	214.7555236816406	782.3953857421875	445.3145751953125	159.7625579833984	742.1135864257812	698.6583251953125	180.9913787841797	844.586669921875	175.8273315429688	-194.0172119140625	798.918701171875	346.2050170898438	93.09239196777344	950.67822265625	29.9972038269043	-123.9089965820312	969.081787109375	86.93595123291016	-152.3001251220703	855.44091796875	71.05058288574219	-169.7313079833984	878.0818481445312	232.6486663818359	-214.8636474609375	1239.862915039062	639.4567260742188	150.0661163330078	775.9234619140625	851.3897094726562	375.4828796386719	1106.550170898438	945.1693725585938	170.4420013427734	
421	4.2	855.2035522460938	972.1598510742188	52.79419708251953	1025.475341796875	982.6185302734375	90.4407958984375	931.9521484375	1045.03369140625	88.77770233154297	902.6792602539062	1227.003295898438	331.6954040527344	934.3449096679688	1160.193115234375	67.63245391845703	959.0283813476562	1403.90966796875	112.2628479003906	923.00146484375	1325.0439453125	267.8013305664062	880.482421875	1272.439086914062	48.80054473876953	1058.7294921875	1359.909301757812	115.138786315918	1097.754272460938	1363.782348632812	212.0852813720703	1176.177612304688	1252.865478515625	180.6303405761719	1210.829345703125	1057.229858398438	159.8274230957031	1146.730834960938	1038.2060546875	104.7619323730469	1211.686767578125	820.4532470703125	209.4567413330078	1265.79443359375	825.2258911132812	162.6940460205078	1236.948364257812	954.5302734375	155.5047302246094	1277.997314453125	739.4886474609375	150.5600280761719	1251.332275390625	725.1925659179688	209.3238677978516	791.6067504882812	1395.12353515625	153.0208129882812	721.5303344726562	1342.053344726562	138.2184295654297	652.719482421875	1078.438110351562	120.0402297973633	742.4221801757812	1066.810791015625	90.13131713867188	755.3901977539062	933.5799560546875	298.2996215820312	677.942138671875	903.10107421875	278.0523071289062	652.3973388671875	1024.18896484375	169.4846954345703	787.561279296875	767.848388671875	380.9883117675781	705.2830200195312	814.5090942382812	344.8219299316406	915.4329223632812	1552.212646484375	100.4925231933594	951.6875610351562	1613.477783203125	302.08837890625	866.7859497070312	1606.934448242188	261.4179992675781	1046.8564453125	1552.387451171875	164.250732421875	737.7781982421875	910.418701171875	127.8124008178711	781.2396240234375	926.4315185546875	262.2896423339844	1027.077514648438	948.430908203125	301.7979431152344	1077.33837890625	490.6082153320312	331.65234375	1100.49853515625	628.4130249023438	295.4079895019531	1116.6044921875	29.3671703338623	281.5835571289062	1107.317504882812	257.7681579589844	313.4060974121094	973.0249633789062	39.63494491577148	440.4715576171875	966.1572265625	30.3881664276123	360.8164367675781	1073.528442382812	29.96468162536621	397.0227966308594	1082.06640625	30.0060977935791	214.8086700439453	780.5306396484375	447.2661743164062	177.6422882080078	741.6430053710938	700.5070190429688	188.6423187255859	849.7753295898438	183.9954681396484	-177.9222564697266	798.1295166015625	348.8644714355469	111.8947143554688	946.284912109375	31.08230781555176	-104.4210510253906	968.950439453125	88.86495971679688	-131.0341644287109	855.7388305664062	78.63748931884766	-155.7040710449219	886.2669677734375	239.9812469482422	-196.3311767578125	1246.22314453125	641.8049926757812	176.0670471191406	764.8298950195312	839.9207763671875	376.0609436035156	1107.679077148438	945.8228149414062	180.6324462890625	
422	4.21	858.4389038085938	972.4320678710938	58.7288932800293	1028.184692382812	983.3606567382812	98.92644500732422	934.8406372070312	1046.487670898438	96.03622436523438	900.6471557617188	1226.986450195312	340.0018920898438	937.4463500976562	1162.504150390625	76.14628601074219	961.052001953125	1406.101196289062	123.0942001342773	922.0204467773438	1325.476684570312	277.2756958007812	883.4967651367188	1274.715087890625	57.30622863769531	1060.911010742188	1362.171752929688	127.7332458496094	1097.784912109375	1365.294189453125	225.6034240722656	1177.6142578125	1254.7490234375	196.4933166503906	1214.06201171875	1059.027099609375	177.5328674316406	1151.753662109375	1039.678588867188	120.5328903198242	1215.086303710938	823.3107299804688	230.4116668701172	1269.987548828125	827.5152587890625	184.355224609375	1240.540405273438	956.3729248046875	174.8909301757812	1283.066284179688	741.6732177734375	174.4847717285156	1255.754760742188	728.5620727539062	233.2180328369141	792.9064331054688	1396.49169921875	161.2593383789062	722.8859252929688	1343.494262695312	145.3811492919922	654.1293334960938	1079.96240234375	126.6660614013672	743.9124755859375	1068.015014648438	96.85831451416016	749.2608642578125	925.5503540039062	300.8525085449219	670.9088745117188	898.711669921875	278.1056213378906	651.8837280273438	1024.49609375	174.2280120849609	773.0631713867188	756.1458740234375	379.0489807128906	693.2567749023438	807.197265625	342.7820434570312	917.832275390625	1553.185180664062	110.0957641601562	952.4010620117188	1615.11279296875	311.789306640625	867.8985595703125	1608.8330078125	270.3269958496094	1048.624633789062	1553.030151367188	175.2975311279297	739.8779296875	911.0773315429688	132.0597229003906	780.5538940429688	926.9901123046875	266.4082336425781	1026.234008789062	949.1931762695312	310.6192321777344	1077.445434570312	490.1102600097656	335.9320068359375	1100.453002929688	628.4788208007812	301.7717590332031	1116.355712890625	29.62398529052734	281.5680847167969	1107.283325195312	257.4945068359375	315.3749389648438	972.6358642578125	38.63383102416992	440.6354064941406	965.9140014648438	29.97013664245605	360.9228820800781	1073.352905273438	29.84246063232422	397.1463928222656	1081.894165039062	30.21108245849609	214.8547973632812	778.4923706054688	449.497314453125	195.6232147216797	741.135009765625	702.4781494140625	196.4893341064453	855.1673583984375	190.9642791748047	-160.7132568359375	797.3316040039062	351.6167907714844	130.9537048339844	941.96484375	32.71566390991211	-82.6527099609375	968.4815063476562	90.44412231445312	-108.2011871337891	855.9857177734375	85.70476531982422	-138.9588775634766	894.5518188476562	245.7244720458984	-177.3621520996094	1252.12158203125	644.35107421875	202.2592315673828	753.2272338867188	829.2887573242188	375.9386596679688	1108.729248046875	946.24951171875	190.5205230712891	
